<?xml version="1.0" encoding="utf-8"?>
<!-- Generator: Adobe Illustrator 19.2.1, SVG Export Plug-In . SVG Version: 6.00 Build 0)  -->
<svg version="1.1" id="layer" xmlns="http://www.w3.org/2000/svg" xmlns:xlink="http://www.w3.org/1999/xlink" x="0px" y="0px"
	 viewBox="0 0 652 652" style="enable-background:new 0 0 652 652;" xml:space="preserve">
<style type="text/css">
	.st0{fill:#0058A6;}
	.st1{clip-path:url(#SVGID_2_);fill:url(#SVGID_3_);}
	.st2{clip-path:url(#SVGID_5_);fill:url(#SVGID_6_);}
	.st3{fill:#FFFFFF;}
	.st4{clip-path:url(#SVGID_8_);fill:url(#SVGID_9_);}
	.st5{fill:none;stroke:#0058A6;stroke-width:1.0976;}
	.st6{fill:none;stroke:#0058A6;stroke-width:38.7625;}
	.st7{fill:none;stroke:#FFFFFF;stroke-width:9.0466;}
</style>
<rect x="30.1" y="71.6" class="st0" width="499.8" height="499.8"/>
<g>
	<defs>
		<path id="SVGID_1_" d="M203.9,147.8c0,38.4,31.1,69.6,69.6,69.6c38.4,0,69.6-31.1,69.6-69.6s-31.1-69.6-69.6-69.6
			C235,78.2,203.9,109.4,203.9,147.8"/>
	</defs>
	<clipPath id="SVGID_2_">
		<use xlink:href="#SVGID_1_"  style="overflow:visible;"/>
	</clipPath>
	
		<radialGradient id="SVGID_3_" cx="41.87" cy="791.9296" r="8.8519" gradientTransform="matrix(7.8443 0 0 -7.8443 -55.001 6359.9521)" gradientUnits="userSpaceOnUse">
		<stop  offset="0" style="stop-color:#FFFFFF"/>
		<stop  offset="0.1966" style="stop-color:#FFFFFF"/>
		<stop  offset="0.2862" style="stop-color:#FAFCFD"/>
		<stop  offset="0.3858" style="stop-color:#EDF3F9"/>
		<stop  offset="0.4903" style="stop-color:#D7E5F1"/>
		<stop  offset="0.5981" style="stop-color:#B8D0E6"/>
		<stop  offset="0.7086" style="stop-color:#8FB6D8"/>
		<stop  offset="0.8213" style="stop-color:#5E96C7"/>
		<stop  offset="0.9336" style="stop-color:#2570B3"/>
		<stop  offset="1" style="stop-color:#0058A6"/>
	</radialGradient>
	<rect x="203.9" y="78.2" class="st1" width="139.1" height="139.1"/>
</g>
<g>
	<defs>
		<path id="SVGID_4_" d="M29.7,136.1v435.4H451c0.1-0.5,0.2-1,0.3-1.5c4.8-23.9,7.3-48.6,7.3-73.9c0-202.4-161.8-366.4-361.4-366.4
			C74.2,129.7,51.6,131.9,29.7,136.1"/>
	</defs>
	<clipPath id="SVGID_5_">
		<use xlink:href="#SVGID_4_"  style="overflow:visible;"/>
	</clipPath>
	
		<radialGradient id="SVGID_6_" cx="28.4747" cy="747.2386" r="8.8516" gradientTransform="matrix(41.1138 0 0 -41.1138 -1072.9297 31218.3633)" gradientUnits="userSpaceOnUse">
		<stop  offset="0" style="stop-color:#0058A6"/>
		<stop  offset="0.3726" style="stop-color:#0259A7"/>
		<stop  offset="0.5069" style="stop-color:#095EA9"/>
		<stop  offset="0.6026" style="stop-color:#1465AD"/>
		<stop  offset="0.68" style="stop-color:#2570B3"/>
		<stop  offset="0.7463" style="stop-color:#3B7FBB"/>
		<stop  offset="0.805" style="stop-color:#5791C4"/>
		<stop  offset="0.8581" style="stop-color:#77A6D0"/>
		<stop  offset="0.9069" style="stop-color:#9DBFDD"/>
		<stop  offset="0.9523" style="stop-color:#C8DBEC"/>
		<stop  offset="0.9926" style="stop-color:#F6F9FC"/>
		<stop  offset="1" style="stop-color:#FFFFFF"/>
	</radialGradient>
	<rect x="29.7" y="129.7" class="st2" width="429" height="441.8"/>
</g>
<polygon class="st3" points="247.1,464.2 249.3,452.5 529.9,452.5 529.9,464.2 "/>
<polygon class="st3" points="253.5,437.2 256.2,425.6 529.9,425.6 529.9,437.2 "/>
<polygon class="st3" points="240.2,491.9 242.4,480.7 529.9,480.7 529.9,491.9 "/>
<g>
	<defs>
		<path id="SVGID_7_" d="M29.8,134.5v171.2h225.5c0.1-0.2,0.1-0.4,0.2-0.6c2.6-9.4,3.9-19.1,3.9-29c0-79.6-86.6-144-193.5-144
			C53.6,132,41.5,132.8,29.8,134.5"/>
	</defs>
	<clipPath id="SVGID_8_">
		<use xlink:href="#SVGID_7_"  style="overflow:visible;"/>
	</clipPath>
	
		<radialGradient id="SVGID_9_" cx="25.9317" cy="761.2281" r="8.8519" gradientTransform="matrix(22.0106 0 0 -16.1628 -503.252 12580.0947)" gradientUnits="userSpaceOnUse">
		<stop  offset="0" style="stop-color:#0058A6"/>
		<stop  offset="0.8202" style="stop-color:#0058A6"/>
		<stop  offset="0.8402" style="stop-color:#065BA8"/>
		<stop  offset="0.8655" style="stop-color:#1565AD"/>
		<stop  offset="0.8939" style="stop-color:#2F74B6"/>
		<stop  offset="0.9244" style="stop-color:#548AC2"/>
		<stop  offset="0.9565" style="stop-color:#83A6D2"/>
		<stop  offset="0.9897" style="stop-color:#BBC8E5"/>
		<stop  offset="1" style="stop-color:#CED3EB"/>
	</radialGradient>
	<rect x="29.8" y="132" class="st4" width="229.6" height="173.7"/>
</g>
<polygon class="st0" points="91.7,176.7 89.9,182.4 92.3,182.4 93.3,176.7 "/>
<polygon class="st5" points="91.6,176.7 89.9,182.4 92.3,182.4 93.3,176.7 "/>
<polygon class="st0" points="32,215 34,215 34,213.7 "/>
<polygon class="st5" points="32,215 34,215 34,213.7 "/>
<g>
	<polygon class="st0" points="557.8,542.1 546.7,542.1 546.7,538.4 573.3,538.4 573.3,542.1 562.2,542.1 562.2,571.6 557.8,571.6 	
		"/>
	<polygon class="st0" points="580.8,538.4 586.8,538.4 597.3,566.3 607.8,538.4 613.9,538.4 613.9,571.6 609.7,571.6 609.7,544 
		609.6,544 599.2,571.6 595.5,571.6 585.1,544 585,544 585,571.6 580.8,571.6 	"/>
	<polygon class="st6" points="101.3,335.1 74.7,335.1 104.7,173.8 131.3,173.8 	"/>
	<polygon class="st6" points="195.4,335.1 123.7,335.1 153.8,173.8 222.6,173.8 217.4,201.7 175.2,201.7 167.2,244.5 211.3,244.5 
		208,262.5 163.9,262.5 155.5,307.3 200.6,307.3 	"/>
	<path class="st6" d="M328.4,184l-11.7,42.9h-7.2l3-16.3c-1.7-2.2-3.9-4.2-6.4-6c-2.6-1.8-6.7-2.7-12.3-2.7c-9,0-17.5,4.7-25.6,14.1
		c-8.1,9.4-13.6,21.9-16.6,37.7c-3,16.2-2.9,29.2,0.3,38.8c3.3,9.6,10.2,14.4,21,14.4c4.6,0,9.9-0.9,16-2.6c6.1-1.7,11.5-4,16.1-6.7
		l-5.5,29.4c-4.6,3.2-10.1,5.8-16.6,7.6c-6.5,1.8-12.3,2.7-17.3,2.7c-18.6,0-31.5-7.3-38.7-22c-7.2-14.6-8.5-34.8-3.7-60.4
		c4.2-22.7,13-42.1,26.4-58.3c13.4-16.1,29.5-24.2,48.2-24.2c5.1,0,10.5,0.9,16.3,2.8C320,177.2,324.8,180.1,328.4,184z"/>
	<polygon class="st6" points="387.7,335.1 316.1,335.1 346.2,173.8 415,173.8 409.8,201.7 367.6,201.7 359.6,244.5 403.7,244.5 
		400.4,262.5 356.2,262.5 347.9,307.3 392.9,307.3 	"/>
	<polygon class="st6" points="488,335.1 461.8,335.1 448.3,301.9 421.9,335.1 395.7,335.1 439.2,279.3 420,231.7 440.6,217.7 
		456.4,256.8 486.9,217.7 502.3,231.7 465.4,279.2 	"/>
	<polygon class="st3" points="102.6,335.1 76,335.1 106,173.8 132.6,173.8 	"/>
	<polygon class="st7" points="102.6,335.1 76,335.1 106,173.8 132.6,173.8 	"/>
	<polygon class="st3" points="196.7,335.1 125,335.1 155.1,173.8 223.9,173.8 218.7,201.7 176.5,201.7 168.5,244.5 212.6,244.5 
		209.3,262.5 165.2,262.5 156.8,307.3 201.9,307.3 	"/>
	<polygon class="st7" points="196.7,335.1 125,335.1 155.1,173.8 223.9,173.8 218.7,201.7 176.5,201.7 168.5,244.5 212.6,244.5 
		209.3,262.5 165.2,262.5 156.8,307.3 201.9,307.3 	"/>
	<path class="st3" d="M329.7,184L318,226.9h-7.2l3-16.3c-1.7-2.2-3.9-4.2-6.4-6c-2.6-1.8-6.7-2.7-12.3-2.7c-9,0-17.5,4.7-25.6,14.1
		c-8.1,9.4-13.6,21.9-16.6,37.7c-3,16.2-2.9,29.2,0.3,38.8c3.3,9.6,10.2,14.4,21,14.4c4.6,0,9.9-0.9,16-2.6c6.1-1.7,11.5-4,16.1-6.7
		l-5.5,29.4c-4.6,3.2-10.1,5.8-16.6,7.6c-6.5,1.8-12.3,2.7-17.3,2.7c-18.6,0-31.5-7.3-38.7-22c-7.2-14.6-8.5-34.8-3.7-60.4
		c4.2-22.7,13-42.1,26.4-58.3c13.4-16.1,29.5-24.2,48.2-24.2c5.1,0,10.5,0.9,16.3,2.8C321.3,177.2,326.1,180.1,329.7,184"/>
	<path class="st7" d="M329.7,184L318,226.9h-7.2l3-16.3c-1.7-2.2-3.9-4.2-6.4-6c-2.6-1.8-6.7-2.7-12.3-2.7c-9,0-17.5,4.7-25.6,14.1
		c-8.1,9.4-13.6,21.9-16.6,37.7c-3,16.2-2.9,29.2,0.3,38.8c3.3,9.6,10.2,14.4,21,14.4c4.6,0,9.9-0.9,16-2.6c6.1-1.7,11.5-4,16.1-6.7
		l-5.5,29.4c-4.6,3.2-10.1,5.8-16.6,7.6c-6.5,1.8-12.3,2.7-17.3,2.7c-18.6,0-31.5-7.3-38.7-22c-7.2-14.6-8.5-34.8-3.7-60.4
		c4.2-22.7,13-42.1,26.4-58.3c13.4-16.1,29.5-24.2,48.2-24.2c5.1,0,10.5,0.9,16.3,2.8C321.3,177.2,326.1,180.1,329.7,184z"/>
	<polygon class="st3" points="389,335.1 317.4,335.1 347.5,173.8 416.3,173.8 411.1,201.7 368.9,201.7 360.9,244.5 405,244.5 
		401.6,262.5 357.5,262.5 349.2,307.3 394.2,307.3 	"/>
	<polygon class="st7" points="389,335.1 317.4,335.1 347.5,173.8 416.3,173.8 411.1,201.7 368.9,201.7 360.9,244.5 405,244.5 
		401.6,262.5 357.5,262.5 349.2,307.3 394.2,307.3 	"/>
	<polygon class="st3" points="489.3,335.1 463,335.1 449.6,301.9 423.2,335.1 397,335.1 440.5,279.3 421.3,231.7 441.9,217.7 
		457.7,256.8 488.2,217.7 503.6,231.7 466.7,279.2 	"/>
	<polygon class="st7" points="489.3,335.1 463,335.1 449.6,301.9 423.2,335.1 397,335.1 440.5,279.3 421.3,231.7 441.9,217.7 
		457.7,256.8 488.2,217.7 503.6,231.7 466.7,279.2 	"/>
</g>
</svg>
